<mxfile host="Electron" agent="Mozilla/5.0 (Windows NT 10.0; Win64; x64) AppleWebKit/537.36 (KHTML, like Gecko) draw.io/26.1.1 Chrome/132.0.6834.210 Electron/34.3.3 Safari/537.36" version="26.1.1">
  <diagram name="Page-1" id="G5xGkce2HFj5eHI2m31s">
    <mxGraphModel dx="1434" dy="836" grid="1" gridSize="10" guides="1" tooltips="1" connect="1" arrows="1" fold="1" page="1" pageScale="1" pageWidth="850" pageHeight="1100" math="0" shadow="0">
      <root>
        <mxCell id="0" />
        <mxCell id="1" parent="0" />
        <mxCell id="VZ-q67iykSA5ez2SLr0z-6" style="edgeStyle=orthogonalEdgeStyle;rounded=0;orthogonalLoop=1;jettySize=auto;html=1;entryX=0;entryY=0.5;entryDx=0;entryDy=0;" edge="1" parent="1" source="VZ-q67iykSA5ez2SLr0z-1" target="VZ-q67iykSA5ez2SLr0z-5">
          <mxGeometry relative="1" as="geometry" />
        </mxCell>
        <mxCell id="VZ-q67iykSA5ez2SLr0z-7" value="Await Payment&lt;div&gt;&lt;br&gt;&lt;/div&gt;" style="edgeLabel;html=1;align=center;verticalAlign=middle;resizable=0;points=[];" vertex="1" connectable="0" parent="VZ-q67iykSA5ez2SLr0z-6">
          <mxGeometry y="-9" relative="1" as="geometry">
            <mxPoint y="11" as="offset" />
          </mxGeometry>
        </mxCell>
        <mxCell id="VZ-q67iykSA5ez2SLr0z-1" value="Order Created" style="rounded=1;whiteSpace=wrap;html=1;" vertex="1" parent="1">
          <mxGeometry x="160" y="160" width="120" height="60" as="geometry" />
        </mxCell>
        <mxCell id="VZ-q67iykSA5ez2SLr0z-3" style="edgeStyle=orthogonalEdgeStyle;rounded=0;orthogonalLoop=1;jettySize=auto;html=1;entryX=0;entryY=0.5;entryDx=0;entryDy=0;" edge="1" parent="1" source="VZ-q67iykSA5ez2SLr0z-2" target="VZ-q67iykSA5ez2SLr0z-1">
          <mxGeometry relative="1" as="geometry" />
        </mxCell>
        <mxCell id="VZ-q67iykSA5ez2SLr0z-4" value="Create Order&lt;div&gt;&lt;br&gt;&lt;/div&gt;" style="edgeLabel;html=1;align=center;verticalAlign=middle;resizable=0;points=[];" vertex="1" connectable="0" parent="VZ-q67iykSA5ez2SLr0z-3">
          <mxGeometry x="-0.1714" y="3" relative="1" as="geometry">
            <mxPoint y="23" as="offset" />
          </mxGeometry>
        </mxCell>
        <mxCell id="VZ-q67iykSA5ez2SLr0z-2" value="Start" style="ellipse;shape=umlEntity;whiteSpace=wrap;html=1;" vertex="1" parent="1">
          <mxGeometry x="10" y="150" width="80" height="80" as="geometry" />
        </mxCell>
        <mxCell id="VZ-q67iykSA5ez2SLr0z-10" style="edgeStyle=orthogonalEdgeStyle;rounded=0;orthogonalLoop=1;jettySize=auto;html=1;entryX=0;entryY=0.5;entryDx=0;entryDy=0;" edge="1" parent="1" source="VZ-q67iykSA5ez2SLr0z-5" target="VZ-q67iykSA5ez2SLr0z-9">
          <mxGeometry relative="1" as="geometry" />
        </mxCell>
        <mxCell id="VZ-q67iykSA5ez2SLr0z-5" value="Payment Pending" style="rounded=1;whiteSpace=wrap;html=1;" vertex="1" parent="1">
          <mxGeometry x="360" y="160" width="120" height="60" as="geometry" />
        </mxCell>
        <mxCell id="VZ-q67iykSA5ez2SLr0z-13" style="edgeStyle=orthogonalEdgeStyle;rounded=0;orthogonalLoop=1;jettySize=auto;html=1;entryX=0.5;entryY=0;entryDx=0;entryDy=0;" edge="1" parent="1" source="VZ-q67iykSA5ez2SLr0z-9" target="VZ-q67iykSA5ez2SLr0z-12">
          <mxGeometry relative="1" as="geometry" />
        </mxCell>
        <mxCell id="VZ-q67iykSA5ez2SLr0z-9" value="Payment Confirmed" style="rounded=1;whiteSpace=wrap;html=1;" vertex="1" parent="1">
          <mxGeometry x="590" y="160" width="120" height="60" as="geometry" />
        </mxCell>
        <mxCell id="VZ-q67iykSA5ez2SLr0z-11" value="Payment Received&lt;div&gt;&lt;br&gt;&lt;/div&gt;" style="text;html=1;align=center;verticalAlign=middle;resizable=0;points=[];autosize=1;strokeColor=none;fillColor=none;" vertex="1" parent="1">
          <mxGeometry x="480" y="190" width="120" height="40" as="geometry" />
        </mxCell>
        <mxCell id="VZ-q67iykSA5ez2SLr0z-16" style="edgeStyle=orthogonalEdgeStyle;rounded=0;orthogonalLoop=1;jettySize=auto;html=1;entryX=1;entryY=0.5;entryDx=0;entryDy=0;" edge="1" parent="1" source="VZ-q67iykSA5ez2SLr0z-12" target="VZ-q67iykSA5ez2SLr0z-15">
          <mxGeometry relative="1" as="geometry" />
        </mxCell>
        <mxCell id="VZ-q67iykSA5ez2SLr0z-12" value="Order Packed" style="rounded=1;whiteSpace=wrap;html=1;" vertex="1" parent="1">
          <mxGeometry x="590" y="320" width="120" height="60" as="geometry" />
        </mxCell>
        <mxCell id="VZ-q67iykSA5ez2SLr0z-14" value="Pack Order" style="text;html=1;align=center;verticalAlign=middle;resizable=0;points=[];autosize=1;strokeColor=none;fillColor=none;" vertex="1" parent="1">
          <mxGeometry x="610" y="248" width="80" height="30" as="geometry" />
        </mxCell>
        <mxCell id="VZ-q67iykSA5ez2SLr0z-19" style="edgeStyle=orthogonalEdgeStyle;rounded=0;orthogonalLoop=1;jettySize=auto;html=1;entryX=1;entryY=0.5;entryDx=0;entryDy=0;" edge="1" parent="1" source="VZ-q67iykSA5ez2SLr0z-15" target="VZ-q67iykSA5ez2SLr0z-18">
          <mxGeometry relative="1" as="geometry" />
        </mxCell>
        <mxCell id="VZ-q67iykSA5ez2SLr0z-15" value="Shipped" style="rounded=1;whiteSpace=wrap;html=1;" vertex="1" parent="1">
          <mxGeometry x="360" y="320" width="120" height="60" as="geometry" />
        </mxCell>
        <mxCell id="VZ-q67iykSA5ez2SLr0z-17" value="Ship Order" style="text;html=1;align=center;verticalAlign=middle;resizable=0;points=[];autosize=1;strokeColor=none;fillColor=none;" vertex="1" parent="1">
          <mxGeometry x="500" y="318" width="80" height="30" as="geometry" />
        </mxCell>
        <mxCell id="VZ-q67iykSA5ez2SLr0z-22" style="edgeStyle=orthogonalEdgeStyle;rounded=0;orthogonalLoop=1;jettySize=auto;html=1;entryX=1;entryY=0.5;entryDx=0;entryDy=0;" edge="1" parent="1" source="VZ-q67iykSA5ez2SLr0z-18" target="VZ-q67iykSA5ez2SLr0z-21">
          <mxGeometry relative="1" as="geometry" />
        </mxCell>
        <mxCell id="VZ-q67iykSA5ez2SLr0z-18" value="Delivered" style="rounded=1;whiteSpace=wrap;html=1;" vertex="1" parent="1">
          <mxGeometry x="160" y="320" width="120" height="60" as="geometry" />
        </mxCell>
        <mxCell id="VZ-q67iykSA5ez2SLr0z-20" value="Deliver Order" style="text;html=1;align=center;verticalAlign=middle;resizable=0;points=[];autosize=1;strokeColor=none;fillColor=none;" vertex="1" parent="1">
          <mxGeometry x="275" y="348" width="90" height="30" as="geometry" />
        </mxCell>
        <mxCell id="VZ-q67iykSA5ez2SLr0z-21" value="" style="ellipse;html=1;shape=endState;fillColor=#000000;strokeColor=#ff0000;" vertex="1" parent="1">
          <mxGeometry x="35" y="335" width="30" height="30" as="geometry" />
        </mxCell>
      </root>
    </mxGraphModel>
  </diagram>
</mxfile>
